<?xml version="1.0" standalone="no"?>
<!DOCTYPE svg PUBLIC "-//W3C//DTD SVG 20010904//EN"
 "http://www.w3.org/TR/2001/REC-SVG-20010904/DTD/svg10.dtd">
<svg version="1.0" xmlns="http://www.w3.org/2000/svg"
 width="768.000000pt" height="461.000000pt" viewBox="0 0 768.000000 461.000000"
 preserveAspectRatio="xMidYMid meet">

<g transform="translate(0.000000,461.000000) scale(0.100000,-0.100000)"
fill="#000000" stroke="none">
<path d="M1420 2795 c0 -909 3 -1145 13 -1145 6 0 115 14 241 30 126 17 233
30 236 30 4 0 -35 249 -87 553 -99 581 -102 611 -68 706 31 89 89 142 175 160
76 16 432 67 815 117 309 39 377 45 480 41 374 -15 585 -227 621 -623 18 -198
-71 -374 -240 -475 -31 -19 -56 -36 -56 -39 1 -3 144 -99 320 -215 176 -115
316 -212 312 -216 -7 -7 -401 -59 -440 -59 -15 0 -128 76 -295 197 -222 161
-278 197 -302 195 -16 -1 -175 -20 -352 -44 -178 -23 -325 -39 -328 -36 -9 9
-47 240 -40 246 3 3 188 29 412 58 476 61 454 58 520 88 116 54 170 149 160
285 -6 94 -18 131 -59 201 -42 70 -102 115 -173 131 -52 12 -101 7 -633 -60
-317 -39 -577 -73 -579 -75 -2 -2 39 -260 92 -574 52 -314 95 -592 95 -617 0
-88 -62 -166 -163 -204 -34 -12 -147 -32 -294 -51 -130 -17 -240 -33 -242 -36
-2 -2 1103 -4 2457 -4 l2462 0 0 325 c0 295 -2 325 -16 325 -9 0 -443 -57
-963 -127 -520 -70 -980 -127 -1021 -127 -89 0 -149 26 -180 77 -23 38 -26 97
-6 135 8 15 257 320 554 677 297 358 537 651 533 652 -3 2 -361 -44 -796 -101
l-790 -104 -19 26 c-43 59 -116 115 -204 160 -52 25 -90 48 -85 49 36 11 2204
303 2252 303 34 0 76 -6 95 -14 62 -26 96 -96 81 -166 -4 -20 -188 -249 -555
-693 -301 -364 -547 -663 -545 -665 1 -2 377 45 834 105 l831 107 0 602 c0
572 -1 605 -20 666 -34 111 -146 250 -251 311 -106 61 70 57 -2471 57 l-2318
0 0 -1145z"/>
<path d="M1643 1143 c-12 -4 -253 -384 -253 -397 0 -3 17 -6 39 -6 l38 0 88
146 c49 80 92 147 96 149 6 4 89 -118 89 -131 0 -2 -26 -4 -59 -4 -51 0 -61
-3 -75 -25 -9 -13 -16 -27 -16 -30 0 -3 43 -5 95 -5 l96 0 31 -50 c30 -48 33
-50 76 -50 44 0 44 0 30 23 -9 12 -57 90 -108 172 -98 160 -137 215 -148 214
-4 0 -13 -3 -19 -6z"/>
<path d="M4438 1133 c-8 -10 -64 -97 -123 -193 -59 -96 -112 -181 -118 -187
-7 -10 1 -13 34 -13 l44 0 88 145 c49 80 92 147 97 150 4 2 26 -26 49 -63 l41
-67 -60 -3 c-48 -2 -63 -7 -75 -25 -8 -12 -15 -25 -15 -29 0 -5 43 -8 95 -8
l95 0 31 -50 c29 -48 33 -50 75 -50 l44 0 -51 83 c-29 45 -81 129 -117 187
-74 119 -90 140 -107 140 -7 0 -19 -8 -27 -17z"/>
<path d="M2012 991 c3 -163 8 -178 72 -225 24 -19 42 -21 151 -21 109 0 127 2
151 21 64 47 69 62 72 225 l4 149 -36 0 -36 0 0 -120 c0 -187 -19 -213 -150
-214 -79 0 -132 18 -144 49 -3 9 -6 77 -6 151 l0 134 -41 0 -40 0 3 -149z"/>
<path d="M2580 1105 l0 -35 75 0 75 0 0 -165 0 -165 40 0 40 0 0 165 0 165 75
0 75 0 0 35 0 35 -190 0 -190 0 0 -35z"/>
<path d="M3191 1130 c-79 -34 -121 -97 -121 -185 0 -89 44 -157 122 -190 55
-22 211 -20 263 4 74 34 115 102 115 188 -1 68 -30 126 -81 160 -40 26 -50 28
-158 30 -64 2 -127 -2 -140 -7z m246 -80 c87 -53 79 -187 -12 -226 -53 -22
-182 -19 -222 6 -87 52 -79 193 12 230 11 5 58 9 105 9 67 1 92 -3 117 -19z"/>
<path d="M3710 940 l0 -200 35 0 35 0 0 165 0 165 125 0 c120 0 127 -1 150
-25 14 -13 25 -36 25 -50 0 -14 -11 -37 -25 -50 -22 -23 -31 -25 -125 -25
l-100 0 0 -35 0 -35 100 0 c110 0 150 11 189 54 35 37 41 127 11 174 -33 54
-68 62 -255 62 l-165 0 0 -200z"/>
<path d="M4860 940 l0 -200 35 0 35 0 0 165 0 165 130 0 c127 0 132 -1 157
-26 21 -21 24 -32 20 -62 -10 -59 -25 -67 -142 -70 l-105 -4 0 -29 0 -29 76 0
75 0 51 -55 c48 -53 52 -55 101 -55 l51 0 -59 60 -59 59 28 22 c55 43 69 114
37 185 -30 66 -59 74 -260 74 l-171 0 0 -200z"/>
<path d="M5460 940 l0 -200 40 0 40 0 0 200 0 200 -40 0 -40 0 0 -200z"/>
<path d="M5677 1054 c-97 -72 -118 -91 -115 -110 2 -15 40 -51 122 -113 117
-89 120 -91 175 -91 30 0 51 4 46 8 -6 5 -67 50 -137 101 -71 51 -128 95 -128
96 0 2 39 32 88 66 48 35 107 78 131 96 l44 33 -54 0 c-52 0 -58 -3 -172 -86z"/>
<path d="M6084 1121 c-59 -36 -70 -124 -20 -170 34 -32 78 -41 206 -41 122 0
140 -6 140 -45 0 -49 -24 -55 -203 -55 l-167 0 0 -35 0 -35 173 0 c205 0 233
8 256 77 12 34 13 49 2 82 -18 61 -45 71 -190 71 -143 0 -171 8 -171 48 0 49
11 52 187 52 l163 0 0 35 0 35 -172 0 c-152 0 -177 -2 -204 -19z"/>
</g>
</svg>
